<svg xmlns="http://www.w3.org/2000/svg" width="52.605" height="150" viewBox="0 0 52.605 150">
  <path id="frame-right" d="M16,135.026c.768.828,3.272-3.511,1.5-7.373s-1.022-6.621-1.32-6.567c-.352.06-8.022,7.5-1.92,13.847,0,0,.979.736.514-.368a12,12,0,0,1-.2-6.356s-.222,5.057,1.417,6.81Zm6.156-9.8s1.033.508.406-.433a11.246,11.246,0,0,1-1.309-5.836s.557,4.738,2.38,6.074c.865.627,2.542-3.851.222-7.1s-2.115-5.945-2.385-5.836c-.314.114-6.091,8.352.682,13.139Zm6.491-9.9a11.06,11.06,0,0,1-1.406-5.69s.633,4.5,2.45,5.766c.855.595,2.423-3.689.087-6.821s-2.2-5.777-2.456-5.674c-.3.119-5.8,8.314.936,12.863,0,0,1.028.476.395-.433Zm4.976-12.241a10.719,10.719,0,0,1-2.477-5.133s1.563,4.2,3.548,5.041c.936.395,1.5-4.046-1.352-6.561S30.1,91.381,29.87,91.527c-.265.178-3.84,9.066,3.473,12.041,0,0,1.066.249.287-.487ZM34,87.426s1.79,4.116,3.819,4.847c.957.346,1.277-4.127-1.709-6.48S32.6,80.93,32.38,81.087c-.254.189-3.348,9.26,4.116,11.835,0,0,1.082.189.26-.508A10.729,10.729,0,0,1,34,87.421Zm2.683-10.061s2.034,3.846,4.041,4.408c.947.26.936-4.084-2.12-6.145s-3.754-4.441-3.954-4.273c-.233.2-2.558,9.19,4.841,11.137,0,0,1.06.1.216-.5A10.5,10.5,0,0,1,36.685,77.366Zm1.087-12.311s2.591,3.4,4.625,3.613c.963.1.249-4.1-3.04-5.6s-4.354-3.7-4.517-3.505c-.195.233-1,9.314,6.48,10.007,0,0,1.044-.07.124-.525a10.242,10.242,0,0,1-3.673-3.987Zm-.416-10.5s2.586,3.332,4.6,3.527c.947.092.206-4.051-3.056-5.506s-4.327-3.624-4.49-3.419c-.189.233-.9,9.2,6.491,9.823,0,0,1.028-.076.119-.514a10.12,10.12,0,0,1-3.657-3.905Zm1.093-11.987c-3.348-1.033-4.641-3.013-4.771-2.8-.157.254.2,9.066,7.47,8.8,0,0,1-.195.054-.514a9.956,9.956,0,0,1-4.024-3.381s2.9,2.943,4.89,2.894c.936-.022-.276-3.97-3.624-5Zm-4.333-9.747s3.386,2.38,5.328,1.985c.92-.184-.974-3.857-4.452-4.279s-5.1-2.142-5.193-1.915c-.108.27,1.8,8.893,8.909,7.34,0,0,.947-.368-.032-.519a9.958,9.958,0,0,1-4.565-2.607ZM30.827,20.613c-2.975-.362-4.36-1.834-4.441-1.639-.092.238,1.547,7.611,7.627,6.285,0,0,.806-.314-.032-.444a8.539,8.539,0,0,1-3.905-2.234s2.894,2.034,4.56,1.7c.779-.157-.833-3.294-3.808-3.662Zm-5.214-6.989s3.17,2.05,4.928,1.628c.833-.206-1.017-3.483-4.208-3.759S21.6,9.714,21.524,9.925c-.092.254,1.953,8.054,8.389,6.394,0,0,.849-.362-.054-.465a9.143,9.143,0,0,1-4.252-2.229ZM20.474,3.862c1.233,2.748,4.717,3.364,4.636,2.569-.168-1.693-2.975-3.862-2.975-3.862a8.472,8.472,0,0,1,3.294,3.072c.368.768.433-.1.433-.1C25.337-.682,17.786-.065,17.6.091c-.168.135,1.655,1.028,2.883,3.77Zm-1.423,128.19c1.969,1.374,6.945.449,6.945.449a11.95,11.95,0,0,1-6.318.692c-1.158-.3-.292.557-.292.557,7.145,5.16,13.436-3.483,13.447-3.84.005-.3-2.623.822-6.691-.384s-8.016,1.877-7.086,2.526Zm20.4-12.441c0-.287-2.456.822-6.3-.249s-7.481,2.034-6.6,2.623c1.877,1.266,6.518.173,6.518.173a11.275,11.275,0,0,1-5.934.757c-1.1-.265-.27.53-.27.53,6.81,4.733,12.587-3.505,12.587-3.84Zm5.263-12.376c-.049-.27-2.245,1.2-6.134.784s-6.778,3.121-5.826,3.559c2.018.914,6.2-.838,6.2-.838a11.079,11.079,0,0,1-5.615,1.7c-1.1-.081-.168.557-.168.557,7.346,3.467,11.592-5.431,11.538-5.755Zm3.6-13.447c-.081-.254-2,1.45-5.793,1.574s-6.193,3.922-5.22,4.208c2.066.611,5.945-1.634,5.945-1.634a10.769,10.769,0,0,1-5.176,2.38c-1.076.07-.092.563-.092.563,7.54,2.353,10.423-6.788,10.331-7.091Zm2.953-12.014c-.1-.254-1.872,1.6-5.652,2.034s-5.853,4.4-4.863,4.614c2.1.444,5.793-2.11,5.793-2.11a10.817,10.817,0,0,1-4.966,2.8c-1.06.157-.043.568-.043.568,7.7,1.731,9.845-7.605,9.726-7.9Zm1.32-11.83c-.1-.238-1.747,1.628-5.387,2.2s-5.5,4.5-4.527,4.663c2.061.352,5.528-2.277,5.528-2.277a10.46,10.46,0,0,1-4.7,2.91c-1.022.189-.022.546-.022.546,7.529,1.379,9.233-7.751,9.1-8.038Zm-.032-12.782c-.13-.222-1.542,1.769-5.041,2.7s-4.906,4.944-3.943,5c2.045.13,5.166-2.786,5.166-2.786A10.256,10.256,0,0,1,44.453,65.4c-.979.292.038.541.038.541,7.486.579,8.222-8.508,8.076-8.774ZM49.716,44.17c-.189-.179-.963,2.1-4.008,3.97s-3.245,6.074-2.31,5.853c1.969-.454,4.1-4.095,4.1-4.095a10.173,10.173,0,0,1-3.121,4.354c-.844.552.189.492.189.492,7.248-1.569,5.371-10.38,5.16-10.58ZM47.06,31.691c-.206-.146-.682,2.169-3.429,4.349s-2.429,6.3-1.547,5.977c1.861-.676,3.5-4.473,3.5-4.473a9.872,9.872,0,0,1-2.526,4.609c-.752.638.243.46.243.46,6.87-2.4,3.992-10.742,3.754-10.916ZM42.381,20.327c-.227-.114-.314,2.25-2.661,4.852s-1.352,6.615-.541,6.156c1.726-.979,2.71-5,2.71-5A9.918,9.918,0,0,1,40.163,31.3c-.638.757.314.417.314.417,6.377-3.5,2.158-11.256,1.9-11.386Zm-4.565-9.006c-.189-.1-.33,1.915-2.4,4.084s-1.331,5.625-.622,5.252c1.5-.79,2.45-4.208,2.45-4.208a8.548,8.548,0,0,1-1.6,4.208c-.568.627.26.357.26.357,5.539-2.829,2.131-9.569,1.915-9.693ZM30.714.762c-.222-.07.07,2.072-1.628,4.782s-.179,6.166.481,5.625c1.4-1.158,1.65-4.922,1.65-4.922a9.042,9.042,0,0,1-.768,4.738c-.454.779.352.319.352.319,5.182-4.16.168-10.472-.087-10.542ZM0,150S12.382,143.713,16,135.026A48.86,48.86,0,0,1,1.5,145.974L-.01,150Z" transform="translate(0.01 0.001)" fill="#fed232"/>
</svg>
